<?xml version="1.0" standalone="no"?>
<!DOCTYPE svg PUBLIC "-//W3C//DTD SVG 20010904//EN"
 "http://www.w3.org/TR/2001/REC-SVG-20010904/DTD/svg10.dtd">
<svg version="1.0" xmlns="http://www.w3.org/2000/svg"
 width="700.000000pt" height="700.000000pt" viewBox="0 0 700.000000 700.000000"
 preserveAspectRatio="xMidYMid meet">
<metadata>
Created by potrace 1.14, written by Peter Selinger 2001-2017
</metadata>
<g transform="translate(0.000000,700.000000) scale(0.100000,-0.100000)"
fill="#000000" stroke="none">
<path d="M1845 5313 c-16 -42 -276 -724 -425 -1113 -89 -234 -172 -452 -185
-485 -13 -33 -201 -526 -419 -1095 -217 -569 -398 -1043 -401 -1052 -6 -14 -2
-18 20 -18 18 0 24 -4 19 -12 -6 -10 -4 -10 7 0 16 15 49 16 49 1 0 -5 -4 -8
-8 -5 -4 2 -14 0 -22 -6 -12 -8 -11 -9 4 -4 14 5 17 2 12 -11 -3 -10 3 -6 15
9 24 32 43 37 34 9 -3 -11 -1 -22 4 -26 7 -3 8 0 5 9 -3 9 -1 16 5 16 6 0 11
-4 11 -8 0 -10 75 -10 85 0 4 4 20 1 36 -8 25 -12 28 -12 23 0 -4 11 0 14 15
11 12 -2 21 0 21 4 0 5 -13 8 -29 7 -16 0 -27 -4 -25 -8 3 -4 -2 -5 -10 -2
-37 14 -9 20 92 20 62 -1 108 -5 110 -11 1 -6 -7 -11 -18 -11 -11 -1 -17 3
-14 8 4 6 -3 5 -14 -1 -26 -14 -35 -14 -26 0 4 7 -1 7 -16 -1 -15 -8 -20 -8
-16 -1 4 6 3 11 -2 11 -11 0 -25 -30 -17 -38 3 -3 5 -1 5 5 0 6 25 9 60 8 48
-2 63 1 73 15 7 9 20 16 29 14 14 -2 29 15 27 32 0 3 7 16 15 30 9 13 14 24
11 24 -3 0 0 10 7 23 6 12 13 27 14 32 2 6 5 21 8 34 3 12 10 29 17 37 6 8 8
14 4 14 -4 0 -2 7 5 15 7 8 9 15 5 15 -4 0 0 11 9 25 9 14 14 25 11 25 -3 0 0
10 7 23 7 12 13 30 14 40 1 9 3 19 4 22 1 3 3 11 4 18 0 6 11 13 24 15 20 3
25 10 20 30 -1 4 -9 6 -18 4 -13 -2 -13 -2 0 7 8 6 11 11 6 11 -5 0 -3 7 4 15
7 8 10 15 6 15 -4 0 0 14 9 30 9 17 13 30 9 30 -4 0 -1 7 6 15 7 8 9 15 5 15
-4 0 -2 6 4 13 6 8 8 17 4 20 -3 4 2 9 11 13 11 4 15 13 11 25 -4 11 -2 19 5
19 6 0 10 8 8 18 -2 10 3 17 12 17 25 1 39 15 33 32 -4 11 -3 14 5 9 8 -5 10
-2 6 8 -3 9 -10 16 -16 16 -5 0 -7 -4 -3 -9 3 -5 0 -13 -6 -17 -8 -5 -8 -9 1
-14 9 -5 9 -9 1 -14 -6 -4 -11 -2 -11 4 0 6 -4 8 -10 5 -6 -3 -7 1 -4 9 3 9
10 16 15 16 5 0 8 3 8 8 -4 21 2 42 12 42 5 0 7 -4 4 -10 -3 -5 -1 -10 4 -10
6 0 11 5 11 11 0 5 5 7 10 4 6 -3 10 -1 10 5 0 6 -8 10 -17 8 -13 -2 -17 3
-15 17 5 41 9 49 23 53 11 3 11 1 -1 -7 -8 -6 -11 -11 -7 -11 4 0 3 -8 -2 -18
-7 -14 -6 -18 9 -18 13 0 17 6 14 23 -3 14 3 27 17 36 13 9 16 17 10 22 -6 3
-11 2 -11 -2 0 -5 -9 -9 -19 -10 -18 -2 -19 -1 -3 16 9 10 21 16 26 13 5 -3
20 -6 33 -8 18 -2 22 1 14 10 -6 7 -7 17 -3 21 4 5 1 5 -6 1 -7 -4 -10 -12 -7
-17 10 -14 -12 -10 -28 6 -8 8 -17 12 -21 10 -3 -3 -3 -2 0 2 8 11 1703 10
1697 -1 -3 -4 -1 -11 4 -15 5 -3 28 -60 52 -126 23 -66 53 -149 66 -185 13
-36 54 -150 90 -255 115 -324 129 -359 147 -378 10 -10 18 -13 18 -8 0 5 17 9
38 8 25 -1 41 -8 50 -22 11 -18 12 -18 10 -1 -2 13 4 20 20 22 12 2 22 -1 22
-6 0 -6 -5 -9 -11 -7 -6 1 -13 -4 -15 -11 -1 -7 0 -8 3 -2 3 7 10 4 19 -7 12
-16 13 -16 8 -1 -4 13 -1 16 15 13 12 -2 21 1 21 7 0 5 -7 8 -15 4 -8 -3 -15
-2 -15 3 0 11 165 8 168 -4 1 -6 -7 -11 -18 -11 -11 -1 -17 3 -14 8 4 6 -3 5
-14 -1 -26 -14 -35 -14 -26 0 4 7 -1 7 -16 -1 -15 -8 -20 -8 -16 -1 4 6 3 11
-2 11 -11 0 -25 -30 -17 -38 3 -3 5 -1 5 5 0 6 24 9 60 8 33 -1 63 2 66 6 3 5
18 2 34 -6 26 -13 29 -13 24 -1 -4 11 0 14 15 11 12 -2 21 0 21 4 0 5 -13 8
-29 7 -16 0 -27 -4 -25 -8 3 -4 -2 -5 -10 -2 -33 13 -13 20 54 20 39 0 70 -4
70 -9 0 -4 -8 -6 -19 -2 -18 5 -39 -21 -26 -33 3 -3 5 1 5 8 0 7 3 10 6 7 4
-3 15 -2 26 4 15 8 23 7 35 -8 12 -14 11 -12 -1 9 -14 25 -15 28 -1 28 8 0 15
5 15 11 0 5 -4 7 -10 4 -9 -6 -14 10 -13 42 1 7 -3 10 -8 7 -8 -4 -11 10 -8
32 0 4 -5 10 -11 14 -7 4 -13 19 -13 33 -1 14 -5 23 -8 21 -4 -2 -10 3 -13 12
-4 10 -2 13 7 8 6 -4 4 2 -7 14 -15 18 -17 24 -6 37 11 13 10 14 -5 8 -14 -5
-17 -3 -12 10 3 8 1 17 -4 19 -6 2 -11 10 -13 18 -4 18 -13 44 -33 88 -8 18
-11 37 -8 42 3 6 3 10 -2 10 -4 0 -14 14 -22 31 -12 27 -12 33 0 41 11 8 10 9
-3 4 -14 -4 -20 4 -29 37 -7 23 -12 45 -11 50 1 4 -2 7 -6 7 -5 0 -14 17 -20
39 -15 48 -15 54 0 45 7 -5 8 -3 4 5 -5 7 -11 10 -14 6 -3 -3 -11 7 -17 22 -9
20 -9 30 -1 35 7 5 5 8 -5 8 -16 0 -54 90 -52 123 1 10 -3 15 -9 11 -7 -5 -9
-1 -5 9 3 10 2 17 -4 17 -6 0 -8 4 -4 9 3 5 1 12 -5 16 -5 3 -10 15 -10 26 0
10 -4 19 -10 19 -5 0 -10 5 -10 11 0 5 6 7 13 3 6 -4 4 2 -6 13 -10 12 -19 33
-21 48 -2 15 -9 30 -16 35 -7 4 -11 19 -8 33 4 18 1 24 -9 20 -16 -6 -17 9 0
26 10 10 9 11 -5 6 -18 -7 -24 7 -19 44 2 8 -2 10 -10 5 -9 -5 -11 -1 -7 14 4
14 2 20 -5 15 -6 -4 -8 2 -5 15 4 12 3 20 -2 17 -10 -6 -22 24 -14 36 3 5 1 9
-5 9 -5 0 -8 9 -6 20 2 11 0 18 -5 15 -11 -7 -23 32 -14 46 5 8 3 9 -6 4 -10
-6 -12 -3 -8 13 4 12 3 20 -2 17 -4 -3 -11 2 -14 11 -8 22 -8 26 4 19 6 -3 10
-1 10 4 0 6 -7 11 -16 11 -8 0 -12 5 -9 10 3 6 1 10 -4 10 -6 0 -10 3 -10 8 1
4 0 10 -1 15 -1 4 -3 10 -5 15 -1 4 -7 20 -13 35 -7 16 -9 33 -6 39 5 7 2 8
-6 3 -10 -6 -12 -4 -7 8 3 10 2 17 -2 17 -5 0 -14 14 -20 30 -5 17 -7 30 -4
30 3 0 0 7 -7 15 -7 8 -10 22 -6 30 3 9 2 14 -3 11 -5 -3 -14 8 -20 24 -5 17
-7 30 -3 30 4 0 1 4 -6 9 -7 4 -14 14 -15 22 -2 8 -6 20 -10 27 -5 6 -5 17 -2
22 3 6 1 10 -5 10 -7 0 -10 7 -6 15 3 8 1 15 -4 15 -9 0 -17 20 -25 62 -3 12
-9 24 -15 26 -5 2 -10 12 -10 23 0 19 -4 29 -29 77 -6 13 -9 27 -6 32 4 6 2
10 -4 10 -5 0 -8 9 -6 20 2 11 0 18 -6 15 -8 -5 -14 15 -10 38 0 4 -3 7 -9 7
-6 0 -9 3 -8 8 1 4 -9 29 -21 56 -12 27 -23 56 -25 65 -2 9 -11 33 -20 54 -9
21 -14 42 -11 47 4 6 2 10 -3 10 -17 0 -32 56 -19 69 9 9 8 11 -5 6 -14 -6
-18 -2 -18 17 0 13 -4 28 -9 34 -5 5 -11 18 -13 29 -1 11 -7 23 -11 26 -5 3
-9 12 -10 20 -2 8 -6 20 -10 27 -5 6 -5 17 -2 22 3 6 1 10 -5 10 -6 0 -8 5 -5
10 3 6 2 10 -3 10 -5 0 -9 6 -9 13 -1 21 -8 42 -16 48 -5 3 -9 12 -10 20 -2 8
-6 19 -10 26 -4 6 -8 23 -9 37 -1 14 -4 23 -7 20 -7 -7 -32 57 -25 67 3 5 0 9
-5 9 -6 0 -10 3 -9 8 0 4 -7 24 -16 46 -10 21 -15 45 -12 53 3 8 2 12 -3 9 -5
-4 -16 13 -24 36 -8 24 -22 60 -32 81 -11 28 -12 37 -3 31 7 -4 4 3 -7 15 -17
19 -17 25 -5 44 12 20 12 21 -3 8 -11 -9 -17 -10 -18 -2 -2 15 -4 23 -13 43
-4 9 -4 22 0 29 4 7 3 9 -3 6 -6 -4 -14 0 -17 9 -4 10 -2 13 7 8 6 -4 4 2 -6
13 -10 12 -19 33 -21 48 -2 15 -9 31 -17 36 -8 5 -10 9 -5 9 5 0 3 7 -4 15 -7
8 -10 21 -7 30 4 8 0 18 -8 22 -8 5 -16 17 -18 28 -2 11 -13 42 -25 69 -12 27
-22 52 -22 57 0 5 -132 9 -294 9 -271 0 -294 -1 -301 -17z m355 -653 c17 -47
41 -110 52 -140 11 -30 26 -71 34 -90 7 -19 29 -78 48 -130 19 -52 71 -194
116 -315 280 -755 380 -1026 380 -1031 0 -2 -311 -4 -691 -4 -688 1 -692 1
-674 20 10 11 14 20 10 20 -5 0 -4 5 2 11 6 6 9 18 6 25 -3 8 0 14 7 14 6 0 8
5 4 12 -5 7 -3 8 6 3 9 -5 10 -2 6 13 -4 11 -2 23 4 27 6 3 8 10 5 15 -3 5 -1
11 5 15 6 4 8 11 5 16 -10 15 2 10 16 -8 12 -14 12 -16 0 -8 -10 6 -12 4 -6
-5 5 -8 4 -11 -3 -6 -15 9 -8 -22 9 -37 12 -10 12 -10 2 2 -10 12 -10 18 2 31
12 14 13 19 2 35 -10 13 -11 24 -3 40 l10 22 18 -21 c10 -12 17 -15 18 -8 0 6
-4 12 -10 12 -5 0 -10 7 -10 15 0 8 -6 15 -12 15 -9 0 -8 4 2 10 8 5 11 10 7
10 -4 0 -2 10 5 23 7 12 11 28 10 35 -2 6 2 12 8 12 6 0 9 4 5 9 -3 5 -1 12 5
16 6 4 7 11 4 17 -5 7 -2 8 6 3 10 -6 12 -4 7 7 -3 9 1 27 8 41 7 14 11 28 8
30 -2 3 0 7 4 10 5 3 9 -5 9 -18 0 -13 -4 -21 -10 -18 -5 3 -6 1 -2 -5 3 -6 2
-13 -4 -17 -6 -4 -8 -11 -4 -16 3 -5 0 -18 -8 -27 -11 -15 -11 -15 3 -5 9 7
19 9 24 5 4 -4 3 3 -3 14 -9 18 -8 25 8 39 15 14 17 21 9 32 -6 7 -8 13 -4 13
4 0 2 7 -5 15 -10 12 -10 15 0 15 7 0 10 7 6 15 -3 8 1 20 8 27 7 7 11 19 8
26 -2 6 1 12 8 12 6 0 10 6 9 13 -3 26 1 38 12 31 8 -4 9 0 4 15 -5 16 -2 21
12 20 10 0 13 -3 6 -5 -7 -3 -9 -12 -6 -20 3 -7 -2 -17 -11 -20 -9 -3 -13 -10
-10 -15 3 -6 0 -16 -6 -24 -7 -8 -9 -15 -5 -15 4 0 1 -8 -6 -17 -7 -10 -9 -15
-5 -11 5 4 15 3 23 -3 9 -9 13 -8 13 0 0 6 -4 11 -9 11 -15 0 -6 29 15 46 10
8 13 12 5 8 -9 -4 -12 -2 -9 7 3 8 10 13 15 12 7 -1 8 15 4 60 -1 5 -7 5 -13
1 -10 -5 -10 -4 -1 6 6 7 9 20 7 29 -3 9 1 6 7 -6 12 -23 33 -30 43 -14 3 5
-2 8 -11 7 -9 0 -18 5 -21 13 -3 8 0 11 7 7 7 -5 9 -1 5 8 -3 9 -11 13 -18 9
-7 -4 -7 -1 1 9 7 8 10 18 5 22 -4 4 1 12 10 17 9 5 14 17 11 27 -2 11 2 26
11 34 8 9 12 18 9 22 -3 3 -1 12 5 19 7 8 11 16 9 18 -1 2 6 -5 15 -16 21 -24
24 -8 4 18 -14 18 -11 57 5 57 5 0 8 3 8 8 -4 21 3 32 19 32 15 -1 15 -2 -2
-15 -21 -16 -10 -21 13 -6 7 5 11 13 7 19 -3 6 -2 13 3 17 6 3 7 13 4 22 -4
11 -3 14 5 9 7 -4 12 -2 12 4 0 7 -8 9 -20 5 -12 -4 -20 -2 -20 5 0 6 5 8 11
4 8 -4 9 0 4 15 -5 15 -2 21 9 21 9 0 16 5 16 11 0 5 -6 7 -12 3 -8 -5 -7 0 2
11 8 10 14 20 13 22 -7 9 -2 23 8 23 8 0 8 -4 0 -14 -9 -11 -8 -15 5 -20 9 -4
19 -4 22 -1 3 3 0 5 -6 5 -7 0 -12 5 -12 11 0 5 4 8 9 5 5 -3 14 1 21 9 9 10
9 15 1 15 -6 0 -11 -5 -11 -11 0 -8 -4 -8 -14 0 -16 13 -15 26 2 59 7 12 10
22 6 22 -3 0 0 7 7 17 8 9 13 18 12 20 -7 8 -2 23 8 23 5 0 7 -6 3 -12 -4 -7
-4 -10 1 -6 4 4 14 3 22 -3 23 -19 14 2 -9 23 -13 11 -17 16 -9 13 10 -6 11
-2 6 14 -4 13 -2 21 5 21 6 0 8 -6 4 -12 -4 -7 -4 -10 1 -6 4 4 15 2 24 -4 13
-10 14 -10 4 2 -7 8 -13 18 -13 23 0 4 6 5 13 1 6 -4 9 -3 4 1 -4 5 1 18 10
29 10 12 14 18 9 14 -5 -4 -14 0 -21 8 -11 15 -12 15 -12 0 0 -9 5 -16 10 -16
5 0 4 -7 -3 -15 -14 -17 -30 -20 -30 -4 0 5 5 7 10 4 6 -4 9 3 6 17 -2 13 2
29 8 37 6 7 11 21 11 30 0 11 8 15 25 13 l25 -2 -25 14 c-14 9 -19 15 -12 16
7 0 10 5 6 12 -5 7 -3 8 6 3 10 -6 12 -4 7 8 -3 9 -2 19 4 22 5 4 7 11 4 16
-4 5 1 9 11 9 13 0 14 -3 5 -13 -6 -8 -7 -18 -3 -22 4 -5 1 -5 -7 0 -9 5 -12
4 -7 -3 4 -6 14 -8 23 -5 12 5 13 8 4 11 -9 3 -7 10 6 25 10 11 12 17 6 13 -7
-4 -13 -2 -13 4 0 6 -4 9 -9 6 -10 -6 -9 6 2 40 5 14 16 22 33 22 32 0 41 9
24 25 -10 10 -11 9 -5 -2 6 -11 4 -13 -9 -8 -11 5 -15 3 -10 -5 4 -7 3 -8 -5
-4 -8 6 -9 12 -2 20 6 7 8 16 4 20 -4 4 0 4 10 0 10 -3 17 -1 17 5 0 6 -4 11
-10 11 -5 0 -10 7 -10 15 0 8 5 15 12 15 6 0 9 3 5 6 -3 4 0 18 7 33 7 14 11
33 9 41 -10 37 38 -64 67 -140z m-336 -659 c3 -5 0 -11 -7 -14 -8 -3 -14 1
-14 9 0 16 13 19 21 5z m-729 -2011 c-3 -5 -12 -10 -18 -10 -7 0 -6 4 3 10 19
12 23 12 15 0z m-490 -455 c0 -14 -64 -13 -76 1 -7 9 2 11 33 10 24 -1 43 -6
43 -11z"/>
<path d="M2134 4753 c-4 -10 -6 -22 -5 -27 1 -5 -3 -12 -10 -16 -6 -4 0 -7 15
-7 15 0 29 3 32 8 3 5 -2 6 -10 3 -9 -3 -16 -2 -16 4 0 6 6 13 13 15 9 4 9 6
0 6 -7 1 -10 8 -7 16 8 21 -2 19 -12 -2z"/>
<path d="M2133 4675 c0 -8 4 -12 9 -9 5 3 6 10 3 15 -9 13 -12 11 -12 -6z"/>
<path d="M2066 4595 c-7 -20 21 -32 37 -15 10 10 7 11 -13 5 -22 -7 -23 -6
-11 9 7 9 9 16 3 16 -5 0 -13 -7 -16 -15z"/>
<path d="M2036 4481 c-3 -4 6 -7 19 -7 14 0 22 2 19 5 -8 8 -34 10 -38 2z"/>
<path d="M2016 4434 c1 -6 -3 -17 -9 -23 -9 -9 -8 -10 7 -5 15 6 17 4 11 -6
-5 -9 -4 -11 4 -6 6 4 8 12 5 18 -4 6 0 15 7 20 11 8 10 9 -3 5 -9 -3 -19 -3
-21 1 -2 4 -3 2 -1 -4z"/>
<path d="M1947 4244 c3 -7 -1 -14 -8 -14 -7 0 -9 -3 -6 -6 3 -4 1 -16 -5 -28
-18 -31 -19 -50 -4 -37 7 6 16 9 19 6 4 -3 5 -2 2 2 -3 3 3 12 13 20 16 12 16
13 0 7 -10 -3 -18 -2 -18 4 0 6 5 12 12 14 16 6 18 36 3 42 -9 3 -12 0 -8 -10z"/>
<path d="M1895 4090 c5 -8 2 -18 -9 -26 -11 -8 -13 -14 -7 -19 6 -3 11 -1 11
5 0 6 4 9 8 6 4 -2 8 4 9 14 1 11 -3 23 -9 26 -7 5 -8 2 -3 -6z"/>
<path d="M1856 3933 c-4 -5 -12 -8 -17 -8 -5 0 -9 -4 -8 -9 0 -5 -4 -12 -9
-15 -6 -4 -4 -11 4 -19 12 -11 20 -2 12 12 -2 2 6 13 16 25 18 19 19 31 2 14z"/>
<path d="M1790 3840 c0 -5 5 -10 12 -10 6 0 4 -6 -6 -13 -21 -15 -30 -64 -14
-74 6 -3 8 -1 4 5 -3 6 1 18 10 26 8 9 11 16 5 16 -6 0 -11 5 -11 11 0 6 7 8
16 5 8 -3 13 -2 9 3 -3 5 -1 11 5 13 6 2 1 9 -10 16 -12 7 -20 8 -20 2z"/>
<path d="M1751 3736 c2 -2 15 -9 29 -15 24 -11 24 -11 6 3 -16 13 -49 24 -35
12z"/>
<path d="M1757 3709 c7 -7 15 -10 18 -7 3 3 -2 9 -12 12 -14 6 -15 5 -6 -5z"/>
<path d="M1664 3481 c0 -10 5 -18 11 -18 7 0 12 6 12 13 0 7 -5 15 -12 17 -6
3 -11 -3 -11 -12z"/>
<path d="M1670 3440 c0 -5 5 -10 10 -10 6 0 10 5 10 10 0 6 -4 10 -10 10 -5 0
-10 -4 -10 -10z"/>
<path d="M1654 3379 c-3 -6 -2 -15 3 -20 5 -5 9 -1 9 11 0 23 -2 24 -12 9z"/>
<path d="M1605 3321 c3 -2 0 -9 -5 -16 -7 -8 -5 -12 5 -12 8 0 13 3 10 5 -3 3
2 10 11 16 13 10 13 12 -5 12 -11 0 -18 -2 -16 -5z"/>
<path d="M1585 3270 c-16 -25 -12 -46 7 -47 20 -2 20 -1 2 12 -18 14 -18 14 1
15 15 0 17 2 6 9 -11 7 -10 10 5 14 16 4 16 5 2 6 -9 0 -20 -3 -23 -9z"/>
<path d="M1544 3169 c-4 -7 -3 -9 4 -5 6 3 13 -2 15 -11 4 -16 5 -16 6 -1 1
21 -15 32 -25 17z"/>
<path d="M1510 3085 c0 -5 5 -17 10 -25 5 -8 10 -10 10 -5 0 6 -5 17 -10 25
-5 8 -10 11 -10 5z"/>
<path d="M1500 3030 c-8 -5 -11 -10 -6 -10 5 0 3 -7 -4 -15 -7 -8 -9 -15 -5
-15 4 0 3 -6 -3 -13 -8 -10 -6 -13 11 -14 12 -1 17 1 12 5 -15 10 -12 35 4 40
9 3 11 0 6 -8 -5 -9 -4 -11 4 -6 8 6 9 12 2 20 -6 7 -8 16 -4 19 9 10 0 8 -17
-3z"/>
<path d="M3620 5325 c0 -6 83 -229 130 -350 40 -102 344 -898 471 -1235 39
-102 75 -194 79 -205 5 -11 93 -240 196 -510 222 -586 233 -614 244 -640 5
-11 17 -45 28 -75 11 -30 36 -95 55 -145 19 -49 79 -205 132 -345 53 -140 101
-259 106 -264 5 -6 32 -10 59 -10 35 1 49 -3 46 -11 -2 -7 0 -18 6 -26 8 -11
9 -11 5 2 -4 12 2 16 24 16 26 0 34 -8 30 -29 0 -5 3 -8 8 -8 5 0 8 11 7 24 0
13 -4 22 -8 20 -4 -2 -9 -1 -12 4 -2 4 20 8 50 9 30 0 54 -3 54 -7 0 -7 -17
-10 -57 -11 -13 -1 -20 -5 -17 -10 8 -13 42 -11 50 3 5 7 12 5 22 -8 10 -13
13 -14 9 -3 -4 12 2 16 24 16 26 0 34 -8 30 -29 0 -5 3 -8 8 -8 5 0 8 11 7 24
0 13 -4 22 -8 20 -4 -2 -9 -1 -12 4 -2 4 30 8 72 8 44 -1 76 -5 75 -11 -2 -13
-23 -19 -23 -6 0 11 -34 10 -46 -1 -3 -4 -18 -4 -32 -2 -26 4 -26 3 -8 -11 14
-11 23 -12 33 -4 7 6 13 8 13 4 0 -4 6 -3 13 4 10 8 17 7 25 -1 9 -9 15 -9 23
-1 9 9 19 8 40 -3 25 -12 28 -12 23 0 -4 11 0 14 15 11 12 -2 21 0 21 4 0 5
-13 8 -29 7 -16 0 -27 -4 -25 -8 3 -4 -2 -5 -10 -2 -25 9 -19 20 12 21 48 2
70 -6 68 -24 -2 -10 -1 -13 1 -7 2 7 14 10 26 8 15 -3 17 -2 7 3 -14 7 -16 15
-11 41 1 4 6 0 12 -8 9 -13 10 -12 5 2 -3 10 2 22 12 27 15 9 13 11 -13 11 -3
0 -5 -3 -6 -7 0 -5 -7 -15 -15 -24 -8 -9 -11 -19 -7 -24 5 -4 3 -5 -4 -1 -13
7 -6 36 9 36 5 0 7 4 4 8 -3 5 1 20 9 35 7 14 10 29 7 33 -4 4 -1 4 7 -1 10
-6 12 -2 7 13 -4 11 -2 23 4 27 6 3 7 11 4 17 -5 7 -2 8 6 3 10 -6 12 -4 7 7
-3 9 0 21 6 27 6 6 8 11 4 11 -4 0 -2 10 5 23 7 12 11 27 9 32 -1 6 3 5 10 -2
10 -10 9 -15 -1 -28 -7 -8 -9 -15 -5 -15 4 0 2 -6 -4 -14 -9 -11 -8 -15 4 -20
10 -4 14 -2 9 5 -4 6 0 15 7 20 11 7 11 9 1 9 -7 0 -10 5 -7 10 4 6 11 8 17 4
5 -3 2 8 -7 26 -9 18 -13 35 -8 39 4 3 10 13 12 21 5 24 9 44 10 53 1 4 9 7
18 7 15 0 14 -2 -3 -15 -18 -13 -18 -14 6 -8 15 3 22 2 17 -3 -5 -5 -14 -9
-19 -9 -21 0 -18 -20 4 -34 20 -13 22 -13 10 1 -10 12 -10 18 2 27 12 10 13
18 4 36 -6 14 -16 21 -22 18 -6 -4 -5 1 3 10 7 9 10 17 6 17 -4 0 -2 6 4 14 7
8 14 24 16 36 6 32 13 36 38 21 18 -11 20 -11 10 0 -7 7 -13 16 -13 21 0 4 6
6 13 4 6 -1 9 -1 5 1 -15 8 -8 25 7 19 13 -5 14 -2 4 17 -15 28 -24 37 -17 16
3 -8 -2 -26 -11 -38 -13 -17 -18 -19 -18 -7 0 9 4 16 9 16 5 0 7 4 4 8 -3 5 3
22 13 38 10 16 17 37 15 47 -2 14 1 15 18 6 11 -6 22 -8 26 -5 3 3 -1 6 -9 6
-12 0 -11 2 1 11 13 9 12 10 -2 5 -14 -4 -17 -1 -14 17 3 12 5 24 6 27 2 3 2
8 1 13 0 4 3 7 8 7 7 0 24 55 19 63 -1 1 5 13 12 27 8 14 13 29 12 33 -1 5 2
6 7 3 4 -3 9 6 9 20 0 33 9 41 32 27 15 -10 21 -9 32 5 12 15 11 16 -4 3 -15
-11 -19 -11 -24 3 -3 9 -11 13 -18 9 -7 -4 -7 -1 1 9 7 8 9 19 5 23 -4 5 -1 5
6 1 7 -4 10 -11 7 -16 -3 -5 -1 -11 4 -15 10 -6 7 27 -4 45 -8 13 14 52 26 45
5 -4 9 -2 9 4 0 5 -6 12 -12 14 -10 4 -10 6 -1 6 7 1 10 7 7 15 -3 8 0 17 5
21 6 3 8 11 5 17 -5 7 -2 8 6 3 10 -6 12 -4 7 8 -3 9 0 22 7 29 7 8 12 21 10
31 -1 10 2 14 9 10 6 -4 8 0 4 9 -3 9 -3 19 1 23 4 4 7 10 7 13 1 4 6 17 13
30 7 12 10 22 7 22 -3 0 0 10 7 23 7 12 11 25 10 30 -1 4 3 7 8 7 13 0 13 -17
0 -25 -5 -3 -6 -13 -3 -22 5 -12 3 -14 -8 -8 -12 7 -12 6 1 -11 22 -29 24 -30
17 -11 -4 9 -2 17 5 17 7 0 7 4 -1 14 -7 9 -8 17 -2 20 5 3 11 1 13 -6 3 -7 7
-4 12 7 4 11 4 16 0 12 -10 -9 -34 25 -26 38 4 5 7 17 7 25 0 8 6 14 13 13 6
-2 12 1 12 6 0 5 -6 12 -12 14 -10 4 -10 6 0 6 7 1 11 5 8 9 -3 5 10 8 29 7
19 -2 32 1 29 6 -3 5 -10 7 -15 4 -5 -4 -17 -1 -26 4 -10 6 -13 11 -8 11 6 0
12 12 13 27 1 15 7 30 13 34 6 3 10 10 9 15 -1 5 4 10 12 12 11 3 11 2 0 -6
-11 -7 -9 -10 6 -14 16 -4 19 -2 15 10 -5 11 -3 13 8 7 12 -7 12 -6 1 7 -8 9
-21 14 -30 11 -13 -4 -14 -3 -3 5 7 5 11 14 8 19 -3 5 0 10 8 10 8 0 12 -4 9
-8 -2 -4 1 -11 7 -15 8 -4 9 -3 5 4 -4 7 -1 12 6 12 7 1 3 6 -10 14 -22 12
-22 13 -6 27 10 8 15 9 11 2 -10 -16 12 -28 26 -14 9 9 8 11 -6 5 -13 -5 -16
-2 -11 10 3 9 9 14 13 12 4 -3 8 4 8 15 1 10 -2 19 -8 19 -5 0 -8 -5 -6 -11 1
-6 -4 -14 -10 -16 -15 -6 -17 13 -3 22 6 4 7 11 4 17 -4 6 -2 8 3 5 6 -4 11 4
11 19 0 13 6 32 14 42 9 9 13 23 11 30 -6 15 13 16 23 0 4 -6 3 -8 -4 -4 -9 5
-10 -13 -2 -34 1 -3 2 -9 1 -13 -1 -5 3 -6 9 -2 8 5 8 11 0 20 -13 16 3 30 23
20 6 -4 5 -1 -4 7 -19 16 -20 45 -2 52 8 3 11 11 7 18 -12 20 -5 77 13 105 10
15 17 28 16 30 -1 1 1 12 4 23 5 19 6 19 18 3 8 -10 17 -15 21 -10 4 4 2 7 -4
7 -7 0 -12 7 -12 15 0 8 -6 15 -12 15 -8 0 -9 3 -3 8 18 13 36 53 29 64 -5 7
-2 8 6 3 10 -6 12 -4 7 8 -3 9 -2 19 4 23 6 3 8 13 5 21 -3 8 -2 11 3 8 5 -3
12 -1 16 5 3 5 1 10 -4 10 -6 0 -3 8 7 18 9 10 24 16 32 13 13 -4 13 -3 0 11
-8 9 -18 14 -23 11 -4 -2 1 10 11 29 10 18 18 41 16 51 -1 9 2 15 7 11 5 -3
10 2 10 10 1 16 4 28 9 44 1 4 2 10 1 14 0 4 8 6 19 5 15 -1 19 -6 14 -22 -6
-20 -6 -20 9 0 9 11 11 22 6 23 -6 3 -5 9 2 18 6 8 16 11 22 7 6 -3 7 -1 3 6
-6 9 -11 9 -22 0 -11 -9 -14 -9 -14 0 0 7 -5 9 -11 5 -8 -5 -8 -9 1 -14 8 -5
8 -10 2 -14 -15 -9 -22 20 -9 33 7 7 12 15 12 19 0 22 29 90 37 86 5 -3 3 -13
-4 -22 -10 -12 -10 -14 0 -8 6 4 12 2 12 -3 0 -6 5 -11 11 -11 8 0 7 6 -2 17
-12 15 -12 16 3 10 12 -4 15 -2 11 8 -3 8 -9 13 -13 10 -10 -6 -22 24 -14 36
3 5 11 9 17 9 7 0 6 -4 -3 -10 -8 -5 -11 -12 -7 -17 5 -4 12 -1 17 7 7 11 5
19 -7 28 -10 7 -12 12 -4 12 7 0 10 4 7 8 -3 5 1 20 9 35 7 14 11 28 8 31 -12
11 28 18 41 7 10 -9 16 -9 21 -1 4 6 1 9 -6 8 -6 -2 -14 3 -17 11 -2 8 0 11 6
7 6 -3 14 -1 18 5 5 8 3 9 -6 4 -8 -5 -11 -3 -8 6 3 8 11 13 17 11 7 -1 10 2
6 8 -3 5 -2 10 4 10 11 0 9 30 -2 31 -4 0 -13 -2 -20 -4 -9 -4 -9 -6 1 -6 6
-1 12 -6 12 -12 0 -8 -5 -7 -16 2 -13 11 -13 15 -2 23 7 6 14 20 15 31 1 11 4
29 7 40 2 11 5 25 5 30 1 6 5 4 10 -4 6 -9 4 -23 -7 -40 -9 -14 -12 -23 -7
-19 4 4 13 3 20 -2 8 -7 12 -5 12 5 0 8 -4 12 -9 9 -4 -3 -8 0 -8 5 0 6 5 11
11 11 6 0 8 9 3 22 -6 21 -5 22 11 8 11 -8 16 -10 12 -3 -4 7 0 16 10 22 10 6
13 11 7 11 -5 0 -15 -5 -22 -12 -9 -9 -12 -9 -12 1 0 7 -5 9 -12 5 -9 -5 -9
-2 1 9 7 9 10 17 6 17 -4 0 0 11 9 25 9 14 14 29 12 34 -3 5 1 14 9 21 8 7 13
16 10 20 -3 5 -1 11 5 15 6 4 8 11 5 16 -4 5 -1 9 5 9 7 0 10 7 7 14 -4 10 -1
13 9 9 11 -4 12 -9 3 -19 -8 -10 -8 -14 0 -14 10 0 15 14 12 34 -1 5 5 6 14 2
10 -3 14 -2 10 5 -4 6 -13 8 -21 5 -16 -6 -29 10 -14 19 6 4 8 11 5 16 -4 5
-1 9 5 9 6 0 9 4 5 9 -3 5 -1 12 5 16 6 4 8 10 5 15 -3 5 0 14 7 22 7 7 15 22
16 33 2 11 7 22 11 25 4 3 8 16 8 29 2 26 10 38 19 28 4 -4 2 -13 -4 -20 -7
-8 -9 -17 -5 -20 3 -4 1 -12 -5 -20 -8 -9 -8 -17 0 -27 8 -12 9 -12 4 2 -3 10
-1 20 5 24 6 3 8 12 5 20 -7 17 10 28 18 12 3 -7 3 -2 0 11 -4 16 -3 21 5 17
17 -11 13 0 -6 15 -14 12 -16 12 -8 0 5 -9 4 -12 -3 -8 -12 8 -4 47 9 47 5 0
8 3 8 8 -4 23 2 42 11 37 8 -5 7 -11 -1 -21 -8 -10 -8 -14 0 -14 11 0 16 15
11 35 -8 38 -8 45 1 45 6 0 7 5 4 10 -3 6 -2 10 4 10 5 0 9 -9 8 -20 -1 -11
-5 -20 -10 -20 -4 0 -5 -5 -2 -11 10 -16 18 -3 20 36 2 21 -1 32 -7 29 -6 -4
-5 2 1 14 6 12 11 71 11 136 l0 116 -227 0 -228 0 -37 -98 c-97 -255 -473
-1251 -484 -1282 -7 -19 -69 -186 -139 -370 -69 -184 -212 -562 -317 -840
-104 -278 -197 -520 -206 -538 -13 -30 -16 -32 -25 -16 -7 13 -7 19 1 22 7 2
3 11 -10 23 -13 10 -17 18 -10 19 6 0 12 5 12 10 0 6 -5 9 -12 8 -7 -2 -13 2
-13 7 -2 14 -15 47 -27 69 -7 14 -6 21 4 27 10 7 9 9 -6 9 -12 0 -16 5 -12 15
3 8 1 15 -4 15 -6 0 -10 9 -10 20 0 11 -4 20 -10 20 -14 0 -12 27 3 33 7 3 5
6 -5 6 -10 1 -19 6 -19 11 -3 20 -4 25 -12 38 -5 6 -5 12 -2 12 3 0 -1 10 -9
22 -9 12 -16 29 -16 38 0 8 -7 28 -15 44 -9 16 -13 36 -10 43 2 8 0 11 -5 8
-9 -6 -27 50 -22 68 1 4 -3 7 -9 7 -6 0 -8 7 -5 16 4 10 2 13 -6 8 -7 -5 -9
-2 -5 9 3 9 1 17 -4 19 -6 2 -11 20 -12 41 -1 22 -4 32 -9 24 -7 -11 -10 -4
-7 19 0 4 -5 11 -13 15 -11 8 -11 10 0 18 11 7 10 9 -3 15 -9 3 -14 10 -11 15
4 5 0 12 -6 14 -10 4 -9 8 2 16 13 9 12 11 -4 11 -12 0 -16 5 -12 16 4 10 2
13 -6 8 -8 -5 -9 -2 -5 9 3 9 2 19 -4 22 -5 4 -7 11 -4 16 4 5 1 9 -5 9 -7 0
-9 7 -6 16 4 10 2 13 -6 8 -8 -5 -9 -2 -5 9 3 10 2 17 -4 17 -6 0 -8 4 -4 9 3
5 1 12 -5 16 -6 4 -8 11 -5 16 4 5 1 9 -4 9 -6 0 -11 11 -11 25 0 14 -4 25 -8
25 -5 0 -9 6 -9 13 -1 21 -8 42 -17 48 -5 4 -8 18 -8 33 0 14 -4 23 -9 20 -9
-5 -12 9 -12 48 0 10 -4 15 -8 12 -5 -3 -9 4 -9 15 0 12 -4 21 -10 21 -5 0
-10 5 -10 11 0 5 6 7 13 3 6 -4 4 2 -6 13 -9 11 -14 23 -10 26 3 4 0 7 -7 7
-7 0 -10 3 -7 7 4 3 2 12 -4 20 -6 7 -8 13 -3 13 5 0 3 4 -3 8 -7 5 -14 20
-15 35 -1 15 -5 27 -8 27 -8 0 -30 62 -30 83 0 9 -4 17 -8 17 -5 0 -9 7 -10
15 -1 8 -3 22 -4 30 -1 8 -5 15 -9 15 -4 0 -9 7 -12 14 -4 11 -1 13 11 9 11
-3 9 1 -5 11 -24 18 -32 42 -10 31 6 -4 3 1 -7 9 -11 9 -17 19 -13 22 3 4 -2
19 -12 33 -10 14 -21 35 -25 45 -6 17 -4 17 11 5 10 -7 8 -2 -4 12 -13 14 -23
32 -23 40 0 8 -5 20 -11 26 -6 6 -11 27 -12 47 -1 21 -4 31 -9 23 -8 -12 -11
-3 -11 35 0 10 -4 15 -10 11 -6 -4 -8 0 -4 10 3 10 2 17 -4 17 -6 0 -8 4 -5 9
4 5 2 11 -3 13 -5 1 -11 14 -13 28 -1 14 -7 28 -11 31 -5 4 -10 18 -10 32 -1
14 -6 23 -11 19 -5 -3 -7 2 -3 11 4 10 2 17 -4 17 -6 0 -8 7 -5 16 3 8 2 12
-4 9 -6 -3 -10 3 -10 15 0 11 -4 28 -9 38 -29 54 -48 110 -47 133 1 18 -2 25
-11 22 -13 -5 -15 4 -16 54 -1 12 -5 20 -9 17 -7 -5 -12 10 -9 29 0 4 -4 7
-10 7 -8 0 -7 5 1 15 11 13 10 14 -4 9 -12 -4 -15 -2 -10 9 3 8 0 18 -5 22 -6
3 -9 11 -6 16 4 5 1 9 -5 9 -6 0 -8 5 -5 10 3 6 0 10 -7 10 -9 0 -9 3 2 10 8
5 10 10 4 10 -17 0 -36 48 -21 54 7 2 4 5 -7 5 -13 1 -17 6 -13 21 3 11 2 20
-3 20 -10 0 -54 119 -53 142 1 10 -2 16 -6 13 -13 -8 -19 43 -7 55 8 8 6 9 -6
5 -17 -7 -21 2 -17 31 0 4 -3 10 -8 13 -14 10 -34 62 -28 72 4 5 2 9 -3 9 -5
0 -16 18 -25 40 l-15 40 -266 0 c-146 0 -266 -2 -266 -5z m3083 -1041 c-8 -13
-20 -24 -27 -24 -7 0 -6 3 2 9 7 4 14 17 15 28 0 12 6 19 14 16 9 -4 9 -10 -4
-29z m-348 -884 c-3 -5 0 -10 7 -10 8 0 6 -5 -5 -11 -9 -6 -15 -14 -12 -20 4
-5 1 -9 -4 -9 -13 0 -14 13 -3 24 4 4 8 12 8 17 2 16 4 19 10 19 3 0 2 -4 -1
-10z m-1145 -1862 c0 -4 -4 -8 -9 -8 -6 0 -12 4 -15 8 -3 5 1 9 9 9 8 0 15 -4
15 -9z m160 0 c0 -4 -4 -8 -9 -8 -6 0 -12 4 -15 8 -3 5 1 9 9 9 8 0 15 -4 15
-9z"/>
<path d="M6947 4933 c-11 -10 -8 -20 6 -26 8 -3 14 3 14 14 2 19 -8 25 -20 12z"/>
<path d="M6935 4821 c-3 -5 -2 -12 3 -15 5 -3 9 1 9 9 0 17 -3 19 -12 6z"/>
<path d="M6880 4765 c-7 -8 -9 -15 -5 -15 4 0 2 -7 -5 -15 -7 -8 -9 -15 -5
-15 4 0 -1 -12 -10 -27 -10 -16 -12 -22 -5 -16 11 10 17 10 29 1 13 -10 14
-10 4 2 -15 17 -17 34 -3 25 6 -3 10 -1 10 4 0 6 -5 11 -11 11 -5 0 -7 5 -4
10 4 6 12 7 18 3 8 -4 7 -1 -1 9 -8 10 -9 19 -3 22 5 3 12 0 14 -6 3 -8 6 -6
6 5 1 21 -12 22 -29 2z"/>
<path d="M6830 4599 c0 -6 -5 -7 -12 -3 -6 4 -8 3 -5 -3 4 -6 0 -16 -8 -23 -7
-6 -12 -17 -9 -25 3 -7 0 -16 -5 -20 -6 -3 -9 -11 -6 -16 4 -5 2 -9 -3 -9 -5
0 -9 -7 -9 -15 0 -9 3 -12 6 -8 4 4 17 21 31 37 14 16 20 26 14 23 -13 -7 -27
17 -17 27 11 11 24 6 17 -6 -4 -7 -3 -8 4 -4 6 4 9 13 5 21 -5 14 8 20 32 15
6 -1 6 2 2 6 -12 12 -37 14 -37 3z"/>
<path d="M6740 4360 c8 -5 20 -10 25 -10 6 0 3 5 -5 10 -8 5 -19 10 -25 10 -5
0 -3 -5 5 -10z"/>
<path d="M6678 4232 c11 -7 10 -10 -3 -16 -10 -3 -15 -12 -11 -21 3 -8 2 -15
-3 -15 -4 0 -8 -7 -8 -15 0 -26 13 -17 27 19 16 41 16 49 -2 54 -11 3 -11 2 0
-6z"/>
<path d="M6601 4043 c1 -5 0 -10 -1 -13 -1 -3 -3 -13 -5 -23 -3 -14 0 -16 9
-8 7 6 15 8 19 5 3 -3 4 2 2 13 -2 10 -4 21 -4 26 -1 4 -5 7 -11 7 -5 0 -9 -3
-9 -7z"/>
<path d="M6555 3920 c-3 -5 -1 -10 4 -10 6 0 11 5 11 10 0 6 -2 10 -4 10 -3 0
-8 -4 -11 -10z"/>
<path d="M2990 3899 c0 -5 5 -7 10 -4 6 3 10 8 10 11 0 2 -4 4 -10 4 -5 0 -10
-5 -10 -11z"/>
<path d="M6556 3888 c3 -4 11 -5 19 -1 21 7 19 12 -4 10 -11 0 -18 -5 -15 -9z"/>
<path d="M6540 3860 c-8 -5 -11 -10 -6 -10 5 0 3 -7 -4 -15 -21 -25 -5 -17 18
10 22 26 19 32 -8 15z"/>
<path d="M6556 3833 c-6 -14 -5 -15 5 -6 7 7 10 15 7 18 -3 3 -9 -2 -12 -12z"/>
<path d="M6515 3800 c-3 -6 1 -7 9 -4 18 7 21 14 7 14 -6 0 -13 -4 -16 -10z"/>
<path d="M6510 3738 c0 -5 -4 -7 -9 -4 -5 4 -7 -4 -3 -16 4 -16 7 -18 10 -8 3
8 12 20 20 26 13 9 12 11 -2 11 -9 0 -16 -4 -16 -9z"/>
<path d="M6473 3691 c-7 -12 -8 -22 -2 -28 6 -6 2 -16 -11 -28 -11 -10 -20
-23 -20 -29 0 -6 7 0 16 12 8 12 19 20 24 17 10 -6 8 15 -3 32 -4 6 -3 14 3
18 5 3 10 1 10 -6 0 -7 3 -10 6 -6 3 3 2 12 -3 21 -7 14 -10 13 -20 -3z"/>
<path d="M6466 3603 c-6 -14 -5 -15 5 -6 7 7 10 15 7 18 -3 3 -9 -2 -12 -12z"/>
<path d="M6430 3586 c0 -2 7 -9 15 -16 13 -11 14 -10 9 4 -5 14 -24 23 -24 12z"/>
<path d="M6410 3540 c-7 -31 -7 -41 2 -47 7 -4 8 -1 3 7 -6 10 -4 12 8 7 9 -3
21 1 28 11 11 14 11 15 -1 5 -11 -10 -16 -9 -26 5 -8 9 -14 15 -14 12z"/>
<path d="M6389 3485 c-1 -3 -2 -13 -3 -22 -1 -10 -4 -23 -8 -29 -4 -6 -1 -11
7 -11 8 0 13 3 10 5 -3 3 0 11 6 19 6 7 8 13 3 13 -5 0 -3 4 4 9 11 7 11 9 -2
14 -9 4 -17 4 -17 2z"/>
<path d="M6376 3353 c-6 -14 -5 -15 5 -6 7 7 10 15 7 18 -3 3 -9 -2 -12 -12z"/>
<path d="M6315 3290 c-3 -5 -1 -10 4 -10 6 0 11 5 11 10 0 6 -2 10 -4 10 -3 0
-8 -4 -11 -10z"/>
<path d="M6307 3264 c-3 -3 -3 -13 0 -21 5 -12 7 -12 14 -1 15 23 4 40 -14 22z"/>
<path d="M6334 3239 c-3 -6 -2 -15 3 -20 5 -5 9 -1 9 11 0 23 -2 24 -12 9z"/>
<path d="M6229 3055 c-1 -3 -3 -9 -4 -15 -1 -5 -3 -11 -5 -12 -1 -2 -3 -11 -5
-21 -3 -14 0 -16 9 -8 7 6 17 7 21 3 5 -4 4 0 -1 8 -12 21 -14 40 -3 40 5 0 9
-4 9 -10 0 -5 5 -10 11 -10 8 0 8 5 -1 15 -12 15 -29 20 -31 10z"/>
<path d="M6196 2962 c-3 -4 4 -9 15 -9 23 -2 25 3 4 10 -8 4 -16 3 -19 -1z"/>
<path d="M6193 2924 c-5 -13 -8 -13 -15 -2 -8 10 -9 9 -5 -3 3 -9 0 -22 -6
-28 -9 -9 -8 -10 7 -5 15 6 17 4 11 -6 -5 -8 -4 -11 3 -6 6 4 9 13 5 21 -3 8
0 15 7 15 6 0 9 4 6 9 -4 5 0 12 6 14 10 4 10 6 0 6 -7 1 -15 -6 -19 -15z"/>
<path d="M6119 2773 c-10 -11 -10 -14 -1 -9 6 4 12 3 12 -2 0 -6 -7 -13 -16
-16 -13 -5 -14 -9 -4 -21 10 -12 9 -16 -4 -21 -9 -3 -14 -10 -11 -14 3 -4 -2
-13 -10 -20 -12 -10 -13 -16 -4 -26 6 -8 16 -14 22 -14 6 0 3 6 -8 13 -12 10
-14 16 -7 21 7 4 12 1 12 -6 0 -10 2 -10 9 1 5 8 7 21 3 29 -4 11 -1 13 8 7 8
-5 11 -4 6 3 -3 6 2 16 11 22 16 10 16 11 1 6 -10 -3 -20 -1 -23 4 -3 5 4 11
15 15 21 7 28 25 9 25 -5 0 -7 5 -4 10 10 16 -1 11 -16 -7z"/>
<path d="M6062 2617 c-14 -17 -9 -50 9 -55 8 -2 10 0 4 5 -17 14 -18 43 0 37
8 -3 15 -1 15 4 0 18 -17 23 -28 9z"/>
<path d="M6035 2541 c3 -2 0 -10 -6 -17 -9 -11 -7 -15 5 -20 9 -4 20 -4 23 0
4 3 -2 6 -13 6 -17 0 -16 3 6 20 24 19 24 19 3 17 -12 0 -20 -3 -18 -6z"/>
<path d="M1370 2501 c0 -3 5 -13 10 -21 8 -13 10 -12 10 3 0 9 5 17 11 17 5 0
7 -5 3 -12 -4 -7 -3 -8 5 -4 6 4 18 2 26 -4 18 -15 20 -3 3 13 -13 13 -68 19
-68 8z"/>
<path d="M1467 2504 c-8 -8 3 -34 15 -34 7 0 6 5 -1 13 -6 8 -8 17 -4 20 3 4
4 7 1 7 -2 0 -7 -3 -11 -6z"/>
<path d="M1490 2501 c0 -4 5 -13 10 -21 8 -12 10 -12 10 5 1 19 1 19 15 1 14
-18 14 -18 12 1 0 13 -8 19 -24 19 -13 0 -23 -2 -23 -5z"/>
<path d="M1550 2498 c0 -4 7 -8 16 -8 9 0 12 -5 8 -12 -4 -7 -4 -10 1 -6 4 4
15 2 23 -5 13 -10 14 -9 7 2 -6 11 -4 13 8 8 9 -3 19 -1 23 5 4 7 9 6 15 -3 6
-10 8 -7 6 8 0 12 -6 19 -12 15 -16 -10 -47 -13 -41 -4 3 5 -8 8 -25 8 -16 0
-29 -3 -29 -8z"/>
<path d="M1670 2498 c0 -4 7 -8 16 -8 8 0 13 -4 10 -9 -4 -5 2 -8 11 -6 10 1
25 -3 33 -9 13 -10 13 -9 1 7 -14 17 -13 18 5 15 10 -1 22 -7 26 -13 4 -5 6 0
6 11 -2 25 -36 27 -55 4 -10 -13 -12 -13 -18 1 -6 16 -35 22 -35 7z"/>
<path d="M1790 2498 c0 -4 7 -8 16 -8 9 0 12 -5 8 -12 -4 -7 -4 -10 1 -6 4 4
15 2 23 -5 13 -10 14 -9 7 2 -6 11 -4 13 8 8 9 -3 19 -1 23 5 4 7 9 6 15 -3 6
-10 8 -7 6 8 0 12 -6 19 -12 15 -16 -10 -47 -13 -41 -4 3 5 -8 8 -25 8 -16 0
-29 -3 -29 -8z"/>
<path d="M1913 2485 c0 -23 1 -25 9 -12 5 10 14 17 19 17 6 0 8 -4 5 -8 -3 -5
1 -9 9 -9 11 0 12 4 4 14 -16 19 1 16 24 -4 13 -11 17 -12 12 -4 -6 11 -4 13
8 8 8 -3 20 0 25 6 8 9 -3 12 -44 13 -31 0 -54 -4 -54 -10 0 -6 -4 -5 -9 3 -6
9 -8 5 -8 -14z"/>
<path d="M2042 2489 c-8 -12 -8 -20 -2 -24 6 -4 9 -1 8 6 -2 6 3 14 11 17 9 3
11 0 6 -8 -6 -9 -3 -9 13 -1 25 13 35 14 28 3 -3 -5 1 -9 9 -9 11 0 12 4 4 14
-16 19 1 16 24 -4 13 -11 17 -12 12 -4 -6 11 -4 13 8 8 8 -3 20 0 25 6 8 9 -3
12 -44 13 -30 0 -54 -4 -54 -8 0 -4 -5 -8 -11 -8 -5 0 -8 4 -5 8 3 5 -1 9 -8
9 -7 0 -18 -8 -24 -18z"/>
<path d="M2202 2489 c-8 -12 -8 -20 -2 -24 6 -4 9 -1 8 6 -2 6 3 14 11 17 9 3
11 0 6 -8 -6 -9 -3 -9 13 -1 25 13 35 14 28 3 -3 -5 1 -9 9 -9 11 0 12 4 4 14
-16 19 1 16 24 -4 13 -11 17 -12 12 -4 -6 11 -4 13 8 8 8 -3 20 0 25 6 8 9 -3
12 -44 13 -30 0 -54 -4 -54 -8 0 -4 -5 -8 -11 -8 -5 0 -8 4 -5 8 3 5 -1 9 -8
9 -7 0 -18 -8 -24 -18z"/>
<path d="M2362 2489 c-8 -12 -8 -20 -2 -24 6 -4 9 -1 8 6 -2 6 3 14 11 17 9 3
11 0 6 -8 -6 -9 -3 -9 13 -1 25 13 35 14 28 3 -3 -5 1 -9 9 -9 11 0 12 4 4 14
-16 19 1 16 24 -4 13 -11 17 -12 12 -4 -6 11 -4 13 8 8 8 -3 20 0 25 6 8 9 -3
12 -44 13 -30 0 -54 -4 -54 -8 0 -4 -5 -8 -11 -8 -5 0 -8 4 -5 8 3 5 -1 9 -8
9 -7 0 -18 -8 -24 -18z"/>
<path d="M2521 2488 c-7 -11 -7 -19 -1 -23 6 -4 9 -1 8 6 -2 6 3 14 11 17 10
3 11 0 5 -9 -7 -12 -5 -12 9 0 9 7 17 17 17 22 0 15 -38 5 -49 -13z"/>
<path d="M2585 2501 c3 -2 -1 -11 -8 -19 -9 -13 -9 -14 1 -8 7 4 12 2 12 -5 0
-7 7 -4 15 7 8 10 15 14 15 9 0 -6 11 -11 24 -11 14 0 22 4 19 10 -4 5 3 7 15
4 14 -4 19 -2 16 6 -5 13 -34 18 -34 6 0 -3 -9 -6 -20 -7 -11 -1 -18 2 -16 6
3 4 -6 7 -19 7 -14 0 -22 -2 -20 -5z"/>
<path d="M2700 2505 c0 0 9 -8 19 -17 18 -16 20 -15 18 1 0 9 -9 17 -19 17
-10 0 -18 -1 -18 -1z"/>
<path d="M2750 2498 c0 -4 7 -8 16 -8 9 0 12 -5 8 -12 -4 -7 -4 -10 1 -6 4 4
15 2 23 -5 13 -10 14 -9 7 2 -6 11 -4 13 8 8 9 -3 19 -1 23 5 4 7 9 6 15 -3 6
-10 8 -7 6 8 0 12 -6 19 -12 15 -16 -10 -47 -13 -41 -4 3 5 -8 8 -25 8 -16 0
-29 -3 -29 -8z"/>
<path d="M2870 2498 c0 -4 7 -8 16 -8 8 0 13 -4 10 -8 -2 -4 6 -8 19 -8 13 0
21 4 18 10 -4 5 1 7 10 3 8 -3 20 0 26 7 9 11 6 13 -11 12 -13 0 -28 -8 -35
-16 -10 -13 -12 -13 -18 1 -6 16 -35 22 -35 7z"/>
<path d="M2976 2482 c-3 -5 1 -9 9 -9 8 0 12 4 9 9 -3 4 -7 8 -9 8 -2 0 -6 -4
-9 -8z"/>
<path d="M5986 2422 c-3 -5 1 -18 10 -28 14 -18 15 -18 4 4 -6 13 -7 22 -1 22
5 0 12 -5 14 -10 3 -6 4 -5 3 2 -3 15 -22 22 -30 10z"/>
<path d="M5965 2370 c-13 -21 -13 -49 1 -60 7 -7 11 -17 7 -23 -4 -6 -1 -7 6
-3 9 6 9 12 -2 24 -12 14 -13 19 -2 29 7 6 15 9 18 6 3 -3 3 4 0 16 -6 22 -18
27 -28 11z m6 -23 c-10 -9 -11 -8 -5 6 3 10 9 15 12 12 3 -3 0 -11 -7 -18z"/>
<path d="M5942 2305 c4 -4 3 -16 -3 -26 -8 -15 -6 -17 8 -12 16 6 17 5 3 -13
-14 -18 -14 -18 3 -5 12 9 14 17 7 26 -5 6 -7 14 -4 17 3 3 -1 9 -8 14 -7 4
-10 4 -6 -1z"/>
<path d="M1225 2240 c10 -11 20 -20 23 -20 3 0 -3 9 -13 20 -10 11 -20 20 -23
20 -3 0 3 -9 13 -20z"/>
<path d="M5916 2242 c-2 -4 4 -13 15 -20 22 -14 25 -7 5 14 -8 8 -17 11 -20 6z"/>
<path d="M1209 2228 c0 -2 -2 -14 -3 -27 -3 -21 -1 -22 9 -8 7 9 16 13 21 9 4
-4 2 1 -5 11 -12 16 -20 21 -22 15z"/>
<path d="M1182 2176 c4 -5 2 -16 -5 -25 -10 -14 -10 -14 4 -4 10 9 19 9 26 2
6 -6 10 -5 10 6 0 8 -3 13 -5 10 -3 -3 -12 1 -21 7 -9 7 -13 8 -9 4z"/>
<path d="M5910 2159 c0 -5 -4 -8 -9 -4 -5 3 -12 1 -15 -4 -8 -12 14 -8 39 7
18 10 18 11 3 12 -10 0 -18 -5 -18 -11z"/>
<path d="M1181 2131 c-15 -10 -23 -32 -22 -64 0 -11 -5 -15 -12 -11 -7 4 -9 4
-5 -1 4 -4 3 -14 -2 -20 -8 -9 -6 -15 6 -19 9 -4 19 -4 22 -1 3 3 0 5 -6 5 -7
0 -12 5 -12 11 0 5 4 8 8 5 5 -3 9 0 10 7 7 59 20 89 35 80 6 -3 7 -1 3 5 -9
14 -7 14 -25 3z"/>
<path d="M5895 2120 c3 -5 8 -10 11 -10 2 0 4 5 4 10 0 6 -5 10 -11 10 -5 0
-7 -4 -4 -10z"/>
<path d="M5839 2038 c-6 -25 -6 -38 1 -38 12 0 20 29 10 35 -6 4 -10 5 -11 3z"/>
<path d="M5830 1979 c0 -5 -4 -8 -8 -5 -5 3 -9 -1 -9 -8 0 -11 4 -12 19 -3 20
13 24 27 8 27 -5 0 -10 -5 -10 -11z"/>
<path d="M1102 1951 c0 -3 -1 -8 -2 -11 -1 -3 -3 -13 -5 -23 -3 -15 -1 -16 11
-6 7 6 12 15 9 19 -3 5 3 10 12 12 15 3 14 5 -4 10 -12 3 -22 3 -21 -1z"/>
<path d="M5830 1940 c0 -5 5 -10 11 -10 5 0 7 5 4 10 -3 6 -8 10 -11 10 -2 0
-4 -4 -4 -10z"/>
<path d="M1100 1890 c-14 -11 -20 -20 -14 -20 6 0 17 7 24 15 7 8 17 12 23 8
6 -3 7 -1 3 5 -9 15 -6 15 -36 -8z"/>
<path d="M5772 1866 c4 -5 3 -15 -3 -22 -6 -7 -6 -14 -1 -18 6 -3 15 0 21 8 9
10 7 17 -6 27 -10 7 -15 9 -11 5z"/>
<path d="M1072 1852 c1 -4 -3 -17 -10 -29 -7 -13 -10 -23 -6 -23 3 0 1 -7 -6
-15 -9 -10 -9 -15 -1 -15 6 0 11 -5 11 -11 0 -5 -4 -8 -9 -4 -6 3 -15 -4 -21
-16 -9 -15 -9 -19 -1 -15 6 4 14 0 17 -9 10 -26 22 1 18 41 -2 24 1 32 9 27 7
-3 9 -3 5 2 -11 11 12 36 25 28 6 -3 7 -1 3 6 -6 9 -11 9 -22 0 -8 -7 -14 -7
-14 -1 0 10 24 33 31 29 2 -1 3 0 1 2 -4 8 -32 10 -30 3z m-18 -118 c3 -8 2
-12 -4 -9 -6 3 -10 10 -10 16 0 14 7 11 14 -7z"/>
<path d="M5725 1729 c4 -5 -1 -19 -10 -29 -11 -13 -13 -20 -5 -25 8 -5 4 -15
-12 -32 -19 -21 -20 -23 -4 -17 15 6 17 4 11 -6 -5 -9 -4 -11 4 -6 6 4 8 12 5
18 -4 6 -1 14 7 18 10 7 10 12 -2 26 -12 16 -12 17 3 11 13 -4 15 -2 11 10 -5
11 -3 14 6 8 10 -6 11 -3 2 14 -7 11 -14 21 -17 21 -3 0 -2 -5 1 -11z"/>
<path d="M1019 1693 c-10 -11 -10 -14 -1 -9 18 11 15 -2 -8 -26 -11 -12 -17
-24 -14 -27 3 -3 9 1 13 8 5 7 11 9 13 5 3 -5 3 -3 2 3 -2 7 5 17 14 23 12 8
14 13 4 16 -6 3 -10 10 -6 15 9 15 -3 10 -17 -8z"/>
<path d="M989 1610 c-1 -3 -1 -8 0 -12 0 -5 -4 -8 -10 -8 -5 0 -8 -4 -5 -8 7
-11 -23 -54 -33 -48 -4 3 -13 1 -20 -3 -9 -6 -10 -11 -2 -15 6 -4 11 -2 11 5
0 7 7 4 15 -7 15 -19 15 -19 8 1 -6 17 -4 18 9 8 19 -17 32 -4 15 15 -10 13
-9 15 5 9 10 -3 20 -1 24 5 4 6 3 8 -4 4 -6 -3 -13 -2 -17 4 -6 9 8 15 29 11
5 -1 4 5 -3 13 -10 12 -9 16 6 25 16 9 16 10 -4 8 -13 -1 -24 -4 -24 -7z"/>
<path d="M525 1529 c-4 -6 -5 -12 -2 -15 2 -3 7 2 10 11 7 17 1 20 -8 4z"/>
<path d="M3389 1527 c5 -5 7 -17 4 -26 -3 -12 -2 -12 7 2 9 14 15 16 26 6 8
-6 17 -9 21 -5 3 3 0 6 -8 6 -11 0 -11 2 1 10 8 5 11 10 5 11 -52 6 -65 5 -56
-4z"/>
<path d="M5099 1538 c-9 -31 -6 -36 16 -28 16 6 25 5 28 -3 2 -6 6 -2 9 9 4
14 0 20 -13 20 -10 0 -15 -4 -13 -8 3 -4 -2 -8 -11 -8 -9 0 -13 5 -10 10 3 6
4 10 1 10 -3 0 -6 -1 -7 -2z"/>
<path d="M735 1500 c3 -5 8 -10 11 -10 2 0 4 5 4 10 0 6 -5 10 -11 10 -5 0 -7
-4 -4 -10z"/>
<path d="M896 1502 c-3 -5 1 -9 9 -9 8 0 12 4 9 9 -3 4 -7 8 -9 8 -2 0 -6 -4
-9 -8z"/>
<path d="M3535 1500 c3 -5 8 -10 11 -10 2 0 4 5 4 10 0 6 -5 10 -11 10 -5 0
-7 -4 -4 -10z"/>
<path d="M3775 1500 c3 -5 8 -10 11 -10 2 0 4 5 4 10 0 6 -5 10 -11 10 -5 0
-7 -4 -4 -10z"/>
<path d="M5615 1500 c3 -5 8 -10 11 -10 2 0 4 5 4 10 0 6 -5 10 -11 10 -5 0
-7 -4 -4 -10z"/>
</g>
</svg>
